<svg width="119" height="108" viewBox="0 0 119 108" fill="none" xmlns="http://www.w3.org/2000/svg">
<g clip-path="url(#clip0)">
<path d="M56.8762 52.8392C58.3224 54.4001 60.6776 54.4001 62.1444 52.8392L84.6429 28.7501C91.1714 21.747 90.7995 10.1455 83.4859 3.69076C77.1227 -1.94127 67.6399 -0.928767 61.8139 5.31498L59.5 7.78295L57.2068 5.33608C51.3807 -0.928767 41.8979 -1.94127 35.5347 3.69076C28.2418 10.1455 27.8493 21.747 34.3778 28.7501L56.8762 52.8392ZM116.789 69.208C114.352 66.9509 110.55 67.0986 107.988 69.208L88.8988 84.7962C86.5642 86.7158 83.6512 87.7494 80.6349 87.7494H56.1944C54.3764 87.7494 52.8889 86.2306 52.8889 84.3744C52.8889 82.5181 54.3764 80.9994 56.1944 80.9994H72.371C75.6559 80.9994 78.7135 78.7001 79.2507 75.3884C79.9325 71.1697 76.7509 67.4994 72.7222 67.4994H39.6667C34.0885 67.4994 28.6964 69.4611 24.3578 73.047L14.751 80.9994H3.30556C1.4875 80.9994 0 82.5181 0 84.3744V104.624C0 106.481 1.4875 107.999 3.30556 107.999H77.0194C80.0151 107.999 82.9281 106.966 85.2833 105.046L116.521 79.5228C119.661 76.9705 119.909 72.0767 116.789 69.208Z" fill="#FF4A4A"/>
</g>
<defs>
<clipPath id="clip0">
<rect width="119" height="108" fill="white"/>
</clipPath>
</defs>
</svg>
